# xmcd CD database file
#
# Track frame offsets:
#	187
#	13752
#	27227
#	40902
#	54372
#	67815
#	81332
#	94457
#	107687
#	121067
#	134280
#	149537
#	165200
#	178502
#	191707
#	206490
#	221325
#	236787
#	251920
#	266812
#	281722
#	296740
#	309762
#
# Disc length: 4302 seconds
#
# Revision: 0
# Processed by: cddbd v1.5PL3 Copyright (c) Steve Scherf et al.
# Submitted via: CDex 1.50
#
DISCID=5310cc17
DTITLE=Lester Young and The Kansas City 6 - The Complete Commodore Recordings
DYEAR=1938
DGENRE=Jazz
TTITLE0=Way Down Yonder in New Orleans
TTITLE1=Way Down Yonder in New Orleans(master take)
TTITLE2=Countless Blues(master take)
TTITLE3=Countless Blues
TTITLE4=Them There Eyes
TTITLE5=Them There Eyes(master take)
TTITLE6=I Want a Little Girl(master take)
TTITLE7=I Want a Little Girl
TTITLE8=Pagin' the Devil(master take)
TTITLE9=Pagin' the Devil
TTITLE10=Three Little Words
TTITLE11=Three Little Words
TTITLE12=Three Little Words
TTITLE13=Three Little Words(master take)
TTITLE14=Jo Jo
TTITLE15=Jo Jo
TTITLE16=Jo Jo
TTITLE17=Jo Jo(master take)
TTITLE18=I Got Rhythm
TTITLE19=I Got Rhythm
TTITLE20=I Got Rhythm(master take)
TTITLE21=Four O'Clock Drag(master take)
TTITLE22=Four O'Clock Drag
EXTD=YEAR: 1938-44
EXTT0=
EXTT1=
EXTT2=
EXTT3=
EXTT4=
EXTT5=
EXTT6=
EXTT7=
EXTT8=
EXTT9=
EXTT10=
EXTT11=
EXTT12=
EXTT13=
EXTT14=
EXTT15=
EXTT16=
EXTT17=
EXTT18=
EXTT19=
EXTT20=
EXTT21=
EXTT22=
PLAYORDER=
